Release Info:

General

Format                                   : Matroska
Format version                           : Version 2
File size                                : 701 MiB
Duration                                 : 1h 44mn
Overall bit rate                         : 960 Kbps

Video
ID                                       : 1
Format                                   : MPEG-4 Visual
Format profile                           : Advanced Simple@L5
Format settings, BVOP                    : Yes
Format settings, QPel                    : No
Format settings, GMC                     : No warppoints
Format settings, Matrix                  : Default (H.263)
Codec ID                                 : V_MS/VFW/FOURCC / XVID
Codec ID/Hint                            : XviD
Duration                                 : 1h 44mn
Bit rate                                 : 794 Kbps
Width                                    : 624 pixels
Height                                   : 272 pixels
Display aspect ratio                     : 2.25:1
Frame rate mode                          : Constant
Frame rate                               : 23.976 fps
Color space                              : YUV
Chroma subsampling                       : 4:2:0
Bit depth                                : 8 bits
Scan type                                : Progressive
Compression mode                         : Lossy
Bits/(Pixel*Frame)                       : 0.195
Stream size                              : 592 MiB (84%)
Writing library                          : XviD 64
Language                                 : English
Default                                  : Yes
Forced                                   : No

Audio
ID                                       : 2
Format                                   : MPEG Audio
Format version                           : Version 1
Format profile                           : Layer 3
Muxing mode                              : Header stripping
Codec ID                                 : A_MPEG/L3
Codec ID/Hint                            : MP3
Duration                                 : 1h 44mn
Bit rate mode                            : Constant
Bit rate                                 : 128 Kbps
Channel(s)                               : 2 channels
Sampling rate                            : 48.0 KHz
Compression mode                         : Lossy
Stream size                              : 95.4 MiB (14%)
Writing library                          : LAME3.98.4UUUU%7@
Language                                 : English
Default                                  : Yes
Forced                                   : No


IMDB Info:

After the birth of Renesmee, the Cullens gather other vampire clans in order to protect the child from a false allegation that puts the family in front of the Volturi.

Director: Bill Condon
Writers: Melissa Rosenberg (screenplay), Stephenie Meyer (novel)
Stars: Kristen Stewart, Robert Pattinson and Taylor Lautner

Genres: Adventure | Drama | Fantasy | Romance
 
http://www.imdb.com/title/tt1673434/

Screen Shot:
 
http://www.shotpix.com/images/34989513201393642853.png 
http://www.shotpix.com/images/57870952780972988842.png 
http://www.shotpix.com/images/95891793021254631787.png 
http://www.shotpix.com/images/97391430800849695770.png 
http://www.shotpix.com/images/81624438924203140970.png 
http://www.shotpix.com/images/77035016104573452015.png 
http://www.shotpix.com/images/95436735518615581311.png 
http://www.shotpix.com/images/34978830684971963234.png 
http://www.shotpix.com/images/57863394887273276731.png 
http://www.shotpix.com/images/99497564875669785858.png 
http://www.shotpix.com/images/47985448635946288527.png